<svg xmlns="http://www.w3.org/2000/svg" viewBox="0 0 512 512">
  <defs>
    <linearGradient id="bg" x1="70" y1="40" x2="440" y2="470" gradientUnits="userSpaceOnUse">
      <stop stop-color="#0d2742"/>
      <stop offset="1" stop-color="#06111e"/>
    </linearGradient>
    <linearGradient id="glow" x1="120" y1="110" x2="390" y2="410" gradientUnits="userSpaceOnUse">
      <stop stop-color="#63e6ff"/>
      <stop offset="1" stop-color="#77ffd0"/>
    </linearGradient>
    <filter id="shadow" x="-40%" y="-40%" width="180%" height="180%">
      <feGaussianBlur stdDeviation="12" result="blur"/>
      <feMerge><feMergeNode in="blur"/><feMergeNode in="SourceGraphic"/></feMerge>
    </filter>
  </defs>
  <rect width="512" height="512" rx="116" fill="url(#bg)"/>
  <circle cx="386" cy="126" r="82" fill="none" stroke="#63e6ff" stroke-opacity=".18" stroke-width="3"/>
  <circle cx="386" cy="126" r="48" fill="none" stroke="#77ffd0" stroke-opacity=".32" stroke-width="3" stroke-dasharray="10 12"/>
  <path d="M145 126h188c24 0 44 20 44 44v206c0 24-20 44-44 44H145c-24 0-44-20-44-44V170c0-24 20-44 44-44Z" fill="#0b2035" stroke="url(#glow)" stroke-width="8"/>
  <path d="M166 205h145M166 267h145M166 329h95" stroke="url(#glow)" stroke-width="18" stroke-linecap="round" filter="url(#shadow)"/>
  <path d="M336 320l24 24 49-61" fill="none" stroke="#77ffd0" stroke-width="20" stroke-linecap="round" stroke-linejoin="round" filter="url(#shadow)"/>
</svg>